<svg width="32" height="32" viewBox="0 0 32 32" fill="none" xmlns="http://www.w3.org/2000/svg">
  <!-- Background circle with gradient -->
  <circle cx="16" cy="16" r="16" fill="url(#gradient)"/>
  
  <!-- Leaf shape -->
  <path d="M16 8C12 8 10 12 10 16C10 20 12 24 16 24C16 20 16 16 16 12C16 12 18 10 20 10C22 10 23 11 23 13C23 15 22 16 20 17C18 18 16 18 16 20V24C20 24 24 20 24 16C24 12 20 8 16 8Z" fill="white"/>
  
  <!-- AI Sparkles -->
  <circle cx="22" cy="10" r="1.5" fill="#FFD700"/>
  <circle cx="11" cy="13" r="1" fill="#FFD700"/>
  <circle cx="20" cy="22" r="1" fill="#FFD700"/>
  
  <!-- Gradient definition -->
  <defs>
    <linearGradient id="gradient" x1="0" y1="0" x2="32" y2="32" gradientUnits="userSpaceOnUse">
      <stop offset="0%" stop-color="#63C088"/>
      <stop offset="100%" stop-color="#7FD19D"/>
    </linearGradient>
  </defs>
</svg>
